<svg xmlns="http://www.w3.org/2000/svg" viewBox="0 0 128 128" width="128" height="128">
  <defs>
    <linearGradient id="grad" x1="0%" y1="0%" x2="100%" y2="100%">
      <stop offset="0%" stop-color="#0f766e"/>
      <stop offset="100%" stop-color="#14b8a6"/>
    </linearGradient>
  </defs>
  <rect x="4" y="4" width="120" height="120" rx="24" fill="url(#grad)"/>
  <!-- Wheel segments -->
  <path d="M64 28 L64 64 L95.1 33.9 A42 42 0 0 0 64 28Z" fill="#fff" opacity="0.95"/>
  <path d="M95.1 33.9 L64 64 L100 64 A42 42 0 0 0 95.1 33.9Z" fill="#fff" opacity="0.7"/>
  <path d="M100 64 L64 64 L95.1 94.1 A42 42 0 0 0 100 64Z" fill="#fff" opacity="0.95"/>
  <path d="M95.1 94.1 L64 64 L64 100 A42 42 0 0 0 95.1 94.1Z" fill="#fff" opacity="0.7"/>
  <path d="M64 100 L64 64 L32.9 94.1 A42 42 0 0 0 64 100Z" fill="#fff" opacity="0.95"/>
  <path d="M32.9 94.1 L64 64 L28 64 A42 42 0 0 0 32.9 94.1Z" fill="#fff" opacity="0.7"/>
  <path d="M28 64 L64 64 L32.9 33.9 A42 42 0 0 0 28 64Z" fill="#fff" opacity="0.95"/>
  <path d="M32.9 33.9 L64 64 L64 28 A42 42 0 0 0 32.9 33.9Z" fill="#fff" opacity="0.7"/>
  <!-- Center hub -->
  <circle cx="64" cy="64" r="10" fill="#fff"/>
  <circle cx="64" cy="64" r="5" fill="#0f766e"/>
  <!-- Pointer -->
  <polygon points="64,22 58,10 70,10" fill="#fff"/>
</svg>
